<svg width="48" height="49" viewBox="0 0 48 49" fill="none" xmlns="http://www.w3.org/2000/svg">
<rect x="0.5" y="1" width="47" height="47" rx="23.5" stroke="#FFC701"/>
<g clip-path="url(#clip0_1_9)">
<path d="M41.3028 36.6586C40.9657 36.5574 40.5729 36.6388 40.2239 37.2317L34.8848 37.2476L34.1311 39.336C34.0493 39.5623 33.8997 39.7581 33.7028 39.8964C33.5058 40.0348 33.2711 40.1092 33.0305 40.1095L34.0618 37.2497H33.2803L32.5286 39.334C32.4464 39.5605 32.2965 39.7563 32.0992 39.8946C31.9019 40.033 31.6669 40.1073 31.4259 40.1076L32.4572 37.2516H31.6758L30.9321 39.336C30.8507 39.5627 30.7012 39.7587 30.5042 39.8972C30.3072 40.0357 30.0721 40.1099 29.8313 40.1095L30.8607 37.2575L25.1091 37.2735H21.1643C21.2352 37.005 21.3929 36.7678 21.6128 36.5984C21.8328 36.4291 22.1026 36.3372 22.38 36.3372H25.355L29.9166 20.215H21.8744C19.776 26.9067 17.6777 34.4611 15.5793 41.3272C15.2243 42.4855 16.0831 43.9056 17.2949 43.9235C24.7244 44.0087 32.1538 43.8401 39.5853 43.9235C39.7913 43.9261 39.9925 43.8602 40.157 43.736C40.3214 43.6116 40.4399 43.4363 40.4936 43.2372L41.9513 37.8724C42.0213 37.6255 41.9928 37.361 41.8718 37.1347C41.7509 36.9083 41.5469 36.7376 41.3028 36.6586Z" fill="url(#paint0_linear_1_9)"/>
<path d="M34.949 2.51785V2.5H26.7005C26.5173 2.5 26.336 2.53623 26.1668 2.60662C25.9978 2.67701 25.8443 2.78016 25.7152 2.91013C25.5862 3.0401 25.4841 3.19431 25.415 3.3639C25.3458 3.53348 25.3108 3.71508 25.3122 3.89823H29.4116C29.3174 4.15042 29.1505 4.36895 28.9319 4.52608C28.7133 4.68321 28.453 4.77187 28.184 4.7808L26.6092 4.82642C25.9031 7.13101 25.1957 9.43561 24.4871 11.7402H32.343L34.5583 3.89823H34.7764C34.9514 3.9007 35.1212 3.83885 35.2536 3.72441C35.3858 3.60997 35.4716 3.45092 35.4944 3.27745C35.514 3.10573 35.469 2.93284 35.3682 2.79244C35.2674 2.65204 35.118 2.55416 34.949 2.51785Z" fill="url(#paint1_linear_1_9)"/>
<path d="M41.5382 14.4195L41.5202 14.2112C41.086 9.3561 36.9567 5.6731 32.0798 5.6731H17.9666C17.3941 5.67277 16.8353 5.84864 16.3663 6.17685C15.8972 6.50507 15.5405 6.9697 15.3446 7.50766C14.9757 8.40014 14.6055 9.29263 14.234 10.1851H13.0043C12.5848 10.1856 12.1708 10.2822 11.7944 10.4675C11.4179 10.6528 11.0889 10.9219 10.8326 11.2541H17.8218C18.4346 11.2541 19.0416 11.272 19.6464 11.2839C19.8557 11.2883 20.0615 11.3376 20.2502 11.4283C20.4389 11.519 20.6059 11.6491 20.74 11.8097C20.8742 11.9704 20.9724 12.1579 21.028 12.3597C21.0837 12.5615 21.0954 12.7729 21.0625 12.9796L19.4144 17.5015H18.6349L20.2057 13.1383H19.7178L18.1451 17.5015H17.1534L18.7281 13.1383C16.13 13.0867 14.0277 13.0371 11.4296 12.9875C11.1229 12.982 10.8206 13.0618 10.5566 13.2179C10.2925 13.3741 10.0771 13.6006 9.93419 13.8721C9.81092 14.1073 9.72018 14.3581 9.66446 14.6178C9.64399 14.7126 9.64641 14.811 9.6715 14.9047C9.6966 14.9984 9.74367 15.0848 9.80879 15.1567C9.87393 15.2287 9.95526 15.284 10.046 15.3183C10.1368 15.3525 10.2345 15.3646 10.3309 15.3536H10.3447C10.4853 15.3288 10.6181 15.2712 10.7321 15.1853C10.8462 15.0995 10.9384 14.988 11.0012 14.8598H15.5231C15.5247 14.9471 15.5089 15.0338 15.4767 15.1149C15.4444 15.1961 15.3963 15.27 15.3352 15.3324C15.2741 15.3947 15.2013 15.4444 15.1208 15.4784C15.0404 15.5122 14.954 15.5299 14.8667 15.5302H12.5026C9.23012 25.2602 6.93346 32.2672 5.98345 34.4309C5.03345 36.5948 5.84264 37.4992 6.5368 37.8403C6.8369 37.9841 7.16592 38.0574 7.49869 38.0545H13.4645L17.4311 26.4621H16.255C15.9499 26.4621 15.6573 26.3408 15.4416 26.1251C15.2259 25.9094 15.1047 25.6169 15.1047 25.3117H21.7666C24.5888 29.2784 27.411 33.3005 30.2333 37.2731C32.9465 37.2731 35.6596 37.2314 38.3649 37.2314L28.9501 24.57L32.062 24.6552C34.3218 24.6643 36.5104 23.8639 38.2311 22.3988C39.952 20.9338 41.0913 18.901 41.443 16.6685C41.5571 15.9246 41.5891 15.1704 41.5382 14.4195ZM17.5818 19.0605H16.6695L17.1157 17.8268H18.0261L17.5818 19.0605ZM18.8491 19.0605H18.159L18.6012 17.8347H19.2954L18.8491 19.0605ZM22.9248 19.0605C22.0363 19.0605 20.9521 19.0605 19.6722 19.0605L20.1165 17.8407H23.3671L22.9248 19.0605ZM20.2374 17.5015L21.7745 13.2811C23.0953 13.2989 24.1901 13.3068 24.9993 13.3088L23.4861 17.5015H20.2374ZM24.4838 19.0683H24.0692H23.746L24.1882 17.8307H24.9279L24.4838 19.0683ZM24.3072 17.5015L25.8205 13.3108H26.5681L25.0469 17.5015H24.3072ZM28.5892 18.3246C27.4626 18.8939 26.4075 19.0346 25.3068 19.0624L25.751 17.8307C26.45 17.8678 27.1504 17.8678 27.8494 17.8307C28.8906 17.7772 29.3626 17.6701 29.8326 17.4202C30.0299 17.3139 30.2155 17.1869 30.386 17.0414C29.8586 17.5613 29.2522 17.9944 28.5892 18.3246ZM30.8918 15.9446C30.6934 16.6567 29.9695 16.9958 29.5768 17.1782C29.0493 17.4202 28.5851 17.4539 27.6867 17.5054C27.0818 17.5425 26.4751 17.5425 25.87 17.5054L27.3773 13.3267C27.5757 13.291 29.2079 13.045 30.2333 14.1359C30.3722 14.2787 31.1297 15.074 30.8918 15.9406V15.9446Z" fill="url(#paint2_linear_1_9)"/>
<path d="M19.7403 14.455L20.2122 13.146H19.7184L18.9688 15.2265L19.7403 14.455Z" fill="url(#paint3_linear_1_9)"/>
<path d="M20.5796 11.6448C20.7662 11.8084 20.9083 12.0167 20.9926 12.2501C21.0768 12.4835 21.1006 12.7345 21.0616 12.9796L20.9763 13.2097L28.5266 5.6731H26.5671L20.5796 11.6448Z" fill="url(#paint4_linear_1_9)"/>
<path d="M17.4139 16.7798L18.5265 13.6997L10.395 21.8313C10.0486 22.8678 9.718 23.8549 9.40332 24.7923L17.4139 16.7798Z" fill="url(#paint5_linear_1_9)"/>
<path d="M37.7662 7.5437L30.6442 14.6657C30.7685 14.851 30.8545 15.0592 30.8972 15.2783C30.9398 15.4974 30.938 15.7226 30.8921 15.941C30.6937 16.653 29.9697 16.9922 29.5771 17.1746C29.0753 17.4047 28.633 17.4463 27.814 17.4959L27.4629 17.849L27.8496 17.831C28.8909 17.7776 29.3629 17.6704 29.8329 17.4206C30.0303 17.3142 30.2158 17.1872 30.3863 17.0417C29.8625 17.5606 29.2601 17.9937 28.6013 18.325C27.8897 18.6839 27.119 18.911 26.3264 18.9953L19.9978 25.3082H21.7669C22.1742 25.8794 22.58 26.4519 22.9846 27.0257L40.041 9.96928C39.4313 9.03328 38.6612 8.21216 37.7662 7.5437Z" fill="url(#paint6_linear_1_9)"/>
<path d="M16.6883 28.62L7.26562 38.0428C7.34273 38.0507 7.42017 38.0546 7.49767 38.0546H11.9581L14.2449 35.7659L16.6883 28.62Z" fill="url(#paint7_linear_1_9)"/>
<path d="M32.0808 5.67316H30.0677L22.4438 13.289C23.4672 13.3009 24.332 13.3069 25.0003 13.3089L23.487 17.5016H20.2384L21.3887 14.3442L20.0956 15.6373L19.4153 17.5016H18.6359L18.866 16.863L17.9021 17.8307H18.027L17.5828 19.0605H16.6705L8.61032 27.1225C7.3886 30.7302 6.49413 33.2768 5.98442 34.4311C5.1911 36.2339 5.60958 37.1422 6.16689 37.6043L17.3091 26.4621H16.2559C15.9509 26.4621 15.6583 26.341 15.4425 26.1252C15.2268 25.9095 15.1056 25.6169 15.1056 25.3118H18.4594L25.6469 18.1244L25.752 17.8307H25.9325L26.2498 17.5115C26.1169 17.5115 25.99 17.5115 25.871 17.4936L27.3783 13.3148C27.5627 13.2831 28.9054 13.0808 29.9209 13.8424L36.8367 6.9266C35.3886 6.09942 33.7484 5.66718 32.0808 5.67316ZM18.8501 19.0526H18.1599L18.6022 17.8268H19.2963L18.8501 19.0526ZM22.9258 19.0526C22.0373 19.0526 20.953 19.0526 19.6732 19.0526L20.1174 17.8328H23.368L22.9258 19.0526ZM24.4846 19.0644H24.0702H23.7469L24.1892 17.8307H24.9289L24.4846 19.0644ZM25.0479 17.4977H24.3082L25.8214 13.3069H26.5691L25.0479 17.4977Z" fill="url(#paint8_linear_1_9)"/>
</g>
<defs>
<linearGradient id="paint0_linear_1_9" x1="37.2112" y1="6.27836" x2="22.8699" y2="62.8501" gradientUnits="userSpaceOnUse">
<stop stop-color="#FF922E"/>
<stop offset="1" stop-color="#FFC239"/>
</linearGradient>
<linearGradient id="paint1_linear_1_9" x1="30.1513" y1="4.48727" x2="15.8081" y2="61.0589" gradientUnits="userSpaceOnUse">
<stop stop-color="#FF922E"/>
<stop offset="1" stop-color="#FFC239"/>
</linearGradient>
<linearGradient id="paint2_linear_1_9" x1="31.3221" y1="9.46517" x2="11.6299" y2="52.7765" gradientUnits="userSpaceOnUse">
<stop stop-color="#F9F9F9"/>
<stop offset="1" stop-color="#B5B5B5"/>
</linearGradient>
<linearGradient id="paint3_linear_1_9" x1="0.48829" y1="32.7252" x2="47.2505" y2="-13.2538" gradientUnits="userSpaceOnUse">
<stop stop-color="#F9F9F9"/>
<stop offset="1" stop-color="#B5B5B5"/>
</linearGradient>
<linearGradient id="paint4_linear_1_9" x1="0.288422" y1="32.525" x2="47.0508" y2="-13.4519" gradientUnits="userSpaceOnUse">
<stop stop-color="#F9F9F9"/>
<stop offset="1" stop-color="#B5B5B5"/>
</linearGradient>
<linearGradient id="paint5_linear_1_9" x1="0.373346" y1="32.6085" x2="47.1357" y2="-13.3684" gradientUnits="userSpaceOnUse">
<stop stop-color="#F9F9F9"/>
<stop offset="1" stop-color="#B5B5B5"/>
</linearGradient>
<linearGradient id="paint6_linear_1_9" x1="7.45933" y1="39.818" x2="54.2217" y2="-6.16091" gradientUnits="userSpaceOnUse">
<stop stop-color="#F9F9F9"/>
<stop offset="1" stop-color="#B5B5B5"/>
</linearGradient>
<linearGradient id="paint7_linear_1_9" x1="7.59287" y1="39.9547" x2="54.3552" y2="-6.02427" gradientUnits="userSpaceOnUse">
<stop stop-color="#F9F9F9"/>
<stop offset="1" stop-color="#B5B5B5"/>
</linearGradient>
<linearGradient id="paint8_linear_1_9" x1="3.60842" y1="35.9007" x2="50.3707" y2="-10.0782" gradientUnits="userSpaceOnUse">
<stop stop-color="#F9F9F9"/>
<stop offset="1" stop-color="#B5B5B5"/>
</linearGradient>
<clipPath id="clip0_1_9">
<rect width="36.9091" height="42" fill="white" transform="translate(5.54541 2.5)"/>
</clipPath>
</defs>
</svg>
