<svg width="165" height="45" viewBox="0 0 165 45" fill="none" xmlns="http://www.w3.org/2000/svg">
<g clip-path="url(#clip0_4_3)">
<path d="M37.8 36.7451C37.4861 36.6509 37.1204 36.7267 36.7954 37.2788L31.8238 37.2936L31.1219 39.2383C31.0457 39.449 30.9065 39.6313 30.7231 39.7601C30.5397 39.8889 30.3211 39.9583 30.097 39.9585L31.0573 37.2955H30.3297L29.6297 39.2364C29.5532 39.4474 29.4136 39.6296 29.2299 39.7585C29.0462 39.8873 28.8273 39.9565 28.6029 39.9567L29.5633 37.2973H28.8356L28.1431 39.2383C28.0673 39.4494 27.9281 39.6319 27.7447 39.7608C27.5612 39.8898 27.3423 39.9589 27.1181 39.9585L28.0766 37.3029L22.7209 37.3177H19.0476C19.1136 37.0677 19.2604 36.8468 19.4652 36.6891C19.67 36.5315 19.9212 36.4459 20.1796 36.4459H22.9499L27.1975 21.4332H19.7088C17.7548 27.6644 15.8009 34.6989 13.847 41.0924C13.5164 42.171 14.3161 43.4934 15.4445 43.51C22.3626 43.5894 29.2807 43.4324 36.2007 43.51C36.3926 43.5125 36.5799 43.4511 36.7331 43.3354C36.8862 43.2196 36.9965 43.0563 37.0465 42.871L38.4039 37.8754C38.469 37.6455 38.4425 37.3992 38.3299 37.1885C38.2173 36.9777 38.0273 36.8187 37.8 36.7451Z" fill="url(#paint0_linear_4_3)"/>
<path d="M31.8838 4.95412V4.9375H24.2029C24.0324 4.9375 23.8635 4.97124 23.706 5.03678C23.5486 5.10233 23.4057 5.19838 23.2855 5.3194C23.1653 5.44042 23.0703 5.58403 23.0059 5.74194C22.9415 5.89985 22.9089 6.06895 22.9102 6.2395H26.7275C26.6398 6.47433 26.4843 6.67782 26.2808 6.82414C26.0772 6.97045 25.8348 7.05301 25.5843 7.06133L24.1179 7.1038C23.4604 9.24978 22.8017 11.3958 22.1418 13.5418H29.4571L31.5199 6.2395H31.7231C31.886 6.2418 32.0441 6.1842 32.1674 6.07764C32.2905 5.97108 32.3704 5.82298 32.3916 5.66145C32.4098 5.50154 32.368 5.34055 32.2741 5.20981C32.1803 5.07907 32.0411 4.98793 31.8838 4.95412Z" fill="url(#paint1_linear_4_3)"/>
<path d="M38.0205 16.0366L38.0039 15.8427C37.5994 11.3217 33.7543 7.89221 29.2132 7.89221H16.0713C15.5382 7.8919 15.0179 8.05568 14.5811 8.3613C14.1443 8.66692 13.8122 9.09958 13.6298 9.60051C13.2863 10.4316 12.9415 11.2626 12.5956 12.0937H11.4506C11.0598 12.0941 10.6744 12.1841 10.3239 12.3567C9.97332 12.5292 9.66697 12.7798 9.4283 13.0891H15.9364C16.5071 13.0891 17.0722 13.1057 17.6355 13.1168C17.8303 13.121 18.0221 13.1669 18.1977 13.2513C18.3733 13.3358 18.5289 13.4569 18.6539 13.6065C18.7788 13.7561 18.8703 13.9307 18.9221 14.1186C18.9738 14.3065 18.9848 14.5034 18.9541 14.6958L17.4194 18.9065H16.6937L18.1563 14.8436H17.702L16.2375 18.9065H15.3141L16.7804 14.8436C14.3611 14.7956 12.4035 14.7494 9.98419 14.7032C9.69857 14.6981 9.41713 14.7724 9.17126 14.9178C8.92538 15.0632 8.72474 15.2741 8.5917 15.5269C8.47692 15.7459 8.39242 15.9795 8.34053 16.2213C8.32147 16.3096 8.32373 16.4012 8.3471 16.4885C8.37047 16.5757 8.41429 16.6562 8.47494 16.7232C8.53558 16.7901 8.61131 16.8417 8.69585 16.8735C8.78038 16.9054 8.8713 16.9167 8.96107 16.9065H8.97398C9.10489 16.8834 9.2285 16.8297 9.33473 16.7498C9.44095 16.6699 9.5268 16.566 9.58529 16.4466H13.796C13.7975 16.5279 13.7828 16.6087 13.7527 16.6842C13.7227 16.7598 13.6779 16.8286 13.621 16.8867C13.5641 16.9448 13.4963 16.991 13.4214 17.0226C13.3464 17.0542 13.266 17.0706 13.1847 17.0709H10.9833C7.93609 26.1312 5.79748 32.656 4.91287 34.6708C4.02825 36.6858 4.78175 37.5279 5.42813 37.8455C5.70757 37.9795 6.01396 38.0477 6.32383 38.045H11.879L15.5726 27.2505H14.4775C14.1934 27.2505 13.9209 27.1375 13.72 26.9366C13.5192 26.7357 13.4063 26.4634 13.4063 26.1792H19.6097C22.2377 29.8729 24.8657 33.6182 27.4938 37.3173C30.0201 37.3173 32.5466 37.2786 35.0656 37.2786L26.2988 25.4885L29.1964 25.5679C31.3009 25.5763 33.3388 24.831 34.9411 23.4668C36.5436 22.1026 37.6045 20.2097 37.9318 18.1309C38.0382 17.4381 38.068 16.7358 38.0205 16.0366ZM15.713 20.3582H14.8634L15.279 19.2094H16.1267L15.713 20.3582ZM16.8931 20.3582H16.2504L16.6622 19.2168H17.3086L16.8931 20.3582ZM20.6883 20.3582C19.8609 20.3582 18.8513 20.3582 17.6595 20.3582L18.0731 19.2224H21.1001L20.6883 20.3582ZM18.1859 18.9065L19.6171 14.9766C20.8471 14.9932 21.8665 15.0006 22.62 15.0024L21.2109 18.9065H18.1859ZM22.1398 20.3655H21.7538H21.4528L21.8646 19.2131H22.5535L22.1398 20.3655ZM21.9754 18.9065L23.3846 15.0043H24.0808L22.6644 18.9065H21.9754ZM25.9627 19.673C24.9137 20.2031 23.9313 20.3341 22.9062 20.36L23.32 19.2131C23.9708 19.2476 24.623 19.2476 25.2739 19.2131C26.2435 19.1632 26.683 19.0636 27.1207 18.8308C27.3044 18.7318 27.4772 18.6136 27.636 18.4781C27.1447 18.9622 26.58 19.3655 25.9627 19.673ZM28.1068 17.4568C27.9222 18.1198 27.2481 18.4357 26.8825 18.6055C26.3912 18.8308 25.959 18.8622 25.1224 18.9102C24.559 18.9447 23.9941 18.9447 23.4308 18.9102L24.8343 15.019C25.019 14.9858 26.5389 14.7568 27.4938 15.7725C27.6231 15.9055 28.3285 16.6461 28.1068 17.4531V17.4568Z" fill="url(#paint2_linear_4_3)"/>
<path d="M17.7204 16.0697L18.1599 14.8508H17.7L17.002 16.7881L17.7204 16.0697Z" fill="url(#paint3_linear_4_3)"/>
<path d="M18.5054 13.4529C18.6791 13.6053 18.8114 13.7992 18.8899 14.0165C18.9684 14.2339 18.9904 14.4676 18.9541 14.6958L18.8747 14.9101L25.9055 7.89221H24.0808L18.5054 13.4529Z" fill="url(#paint4_linear_4_3)"/>
<path d="M15.5554 18.2346L16.5915 15.3665L9.01959 22.9384C8.69702 23.9036 8.38922 24.8227 8.09619 25.6956L15.5554 18.2346Z" fill="url(#paint5_linear_4_3)"/>
<path d="M34.5079 9.63403L27.876 16.2659C27.9919 16.4384 28.0721 16.6323 28.1118 16.8363C28.1513 17.0403 28.1498 17.2501 28.1069 17.4534C27.9223 18.1164 27.2482 18.4322 26.8825 18.6021C26.4152 18.8163 26.0034 18.8551 25.2407 18.9013L24.9138 19.2301L25.274 19.2134C26.2435 19.1636 26.6831 19.0638 27.1208 18.8311C27.3044 18.7321 27.4772 18.6138 27.636 18.4783C27.1482 18.9615 26.5873 19.3648 25.9739 19.6733C25.3113 20.0075 24.5936 20.2189 23.8556 20.2975L17.9624 26.1759H19.6099C19.989 26.7078 20.367 27.2409 20.7438 27.7752L36.6262 11.8927C36.0584 11.0211 35.3414 10.2565 34.5079 9.63403Z" fill="url(#paint6_linear_4_3)"/>
<path d="M14.8818 29.2599L6.10767 38.0341C6.17945 38.0415 6.25156 38.0452 6.32374 38.0452H10.4772L12.6066 35.9139L14.8818 29.2599Z" fill="url(#paint7_linear_4_3)"/>
<path d="M29.2127 7.89227H27.3382L20.239 14.984C21.192 14.9951 21.9973 15.0006 22.6196 15.0025L21.2105 18.9066H18.1854L19.2565 15.9665L18.0525 17.1707L17.419 18.9066H16.6932L16.9075 18.3119L16.0099 19.2131H16.1262L15.7126 20.3582H14.863L7.35763 27.8654C6.21999 31.2248 5.38709 33.5961 4.91246 34.6709C4.17374 36.3497 4.56341 37.1955 5.08236 37.6258L15.4577 27.2505H14.4771C14.193 27.2505 13.9205 27.1376 13.7196 26.9367C13.5188 26.7359 13.4059 26.4634 13.4059 26.1793H16.5288L23.2216 19.4865L23.3195 19.2131H23.4876L23.783 18.9159C23.6593 18.9159 23.5412 18.9159 23.4303 18.8992L24.8339 15.008C25.0056 14.9785 26.2559 14.7901 27.2016 15.4993L33.6413 9.05945C32.2929 8.28919 30.7656 7.8867 29.2127 7.89227ZM16.8927 20.3508H16.25L16.6618 19.2094H17.3082L16.8927 20.3508ZM20.6878 20.3508C19.8605 20.3508 18.8509 20.3508 17.6591 20.3508L18.0727 19.215H21.0997L20.6878 20.3508ZM22.1394 20.3619H21.7535H21.4525L21.8643 19.2131H22.5531L22.1394 20.3619ZM22.6639 18.903H21.9751L23.3841 15.0006H24.0804L22.6639 18.903Z" fill="url(#paint8_linear_4_3)"/>
<path d="M45.2576 35.4265V13.8743H50.8459C52.1096 13.8486 53.3698 14.0142 54.584 14.3655C55.5634 14.6483 56.4127 15.2651 56.9848 16.1089C57.5449 16.9437 57.8245 18.0967 57.8232 19.568C57.8305 20.3608 57.7525 21.1521 57.5905 21.9281C57.4563 22.5735 57.184 23.182 56.7927 23.7122C56.37 24.2484 55.815 24.6652 55.1822 24.9219L58.1631 35.432H53.6661L51.1913 25.6662H49.6474V35.432L45.2576 35.4265ZM49.6474 23.053H50.9253C51.6345 23.053 52.193 22.9372 52.6004 22.7057C53.0095 22.475 53.3182 22.1005 53.4666 21.6549C53.6491 21.0923 53.7347 20.5028 53.7197 19.9115C53.7197 18.9191 53.5349 18.1613 53.1656 17.6381C52.7962 17.1148 52.119 16.8532 51.134 16.8532H49.6437L49.6474 23.053Z" fill="#F9F9F9"/>
<path d="M66.2359 35.7199C64.6033 35.7199 63.3345 35.4403 62.4296 34.8814C61.5276 34.324 60.8532 33.4638 60.5274 32.4547C60.158 31.3983 59.9734 30.1167 59.9734 28.6097V13.874H64.3097V29.2266C64.3094 29.752 64.3496 30.2768 64.4297 30.7963C64.485 31.255 64.6694 31.6887 64.9616 32.0466C65.2361 32.3667 65.6579 32.5268 66.2266 32.5268C66.7955 32.5268 67.2264 32.3667 67.5194 32.0466C67.8096 31.6888 67.9899 31.2544 68.0383 30.7963C68.109 30.276 68.1442 29.7516 68.1436 29.2266V13.874H72.4818V28.6153C72.4818 30.1222 72.2971 31.4039 71.9277 32.4603C71.6013 33.4675 70.927 34.3258 70.0256 34.8814C69.1304 35.4391 67.8672 35.7186 66.2359 35.7199Z" fill="#F9F9F9"/>
<path d="M80.6641 35.7201C79.3331 35.7201 78.2251 35.4738 77.3398 34.9813C76.4442 34.4843 75.7378 33.7051 75.3306 32.7652C74.8787 31.7803 74.617 30.5257 74.5457 29.0014L78.3242 28.3624C78.3422 29.1086 78.4357 29.8511 78.6031 30.5785C78.7036 31.0783 78.9437 31.5394 79.2957 31.9082C79.4503 32.054 79.6321 32.1678 79.8309 32.2433C80.0295 32.3187 80.2412 32.3542 80.4535 32.3478C81.0211 32.3478 81.4065 32.1705 81.6096 31.8159C81.8193 31.4424 81.9251 31.0196 81.9162 30.5914C81.9442 29.7833 81.7161 28.987 81.2643 28.3162C80.7661 27.6361 80.1903 27.0163 79.5486 26.4694L77.3121 24.5266C76.5368 23.8792 75.8762 23.1056 75.3582 22.2384C74.8522 21.3864 74.5992 20.3399 74.5992 19.0989C74.5992 17.3259 75.1182 15.9648 76.156 15.0156C77.194 14.0663 78.6166 13.6003 80.424 13.6175C81.5063 13.6175 82.3934 13.7948 83.0852 14.1494C83.7401 14.4708 84.2965 14.9627 84.6957 15.5733C85.0763 16.1677 85.3465 16.8258 85.4934 17.5161C85.6421 18.2038 85.7353 18.9022 85.7723 19.6049L82.0215 20.159C81.993 19.5765 81.9352 18.9958 81.8478 18.4192C81.7977 17.9928 81.6323 17.5879 81.3695 17.2484C81.2337 17.1004 81.066 16.9852 80.8792 16.9112C80.6925 16.8374 80.4913 16.8067 80.2911 16.8217C80.0668 16.8074 79.843 16.8529 79.6421 16.9534C79.4412 17.054 79.2707 17.2062 79.1479 17.3943C78.9024 17.7695 78.7738 18.2091 78.7785 18.6574C78.7499 19.3239 78.9322 19.9824 79.2993 20.5394C79.7139 21.1019 80.1916 21.6149 80.7232 22.0684L82.9043 23.9855C83.8044 24.7609 84.5887 25.6615 85.2331 26.6596C85.8794 27.6618 86.2033 28.8992 86.2045 30.3717C86.2178 31.3301 85.979 32.2753 85.5119 33.1123C85.0604 33.918 84.3926 34.5814 83.5839 35.0275C82.687 35.5073 81.6809 35.7458 80.6641 35.7201Z" fill="#F9F9F9"/>
<path d="M90.5186 35.4262V17.1428H87.1943V13.874H98.2106V17.1466H94.9362V35.4299L90.5186 35.4262Z" fill="#F9F9F9"/>
<path d="M103.541 35.4262V26.8847L99.3374 13.874H103.461L105.775 21.4569L107.925 13.874H111.918L107.766 26.8847V35.4262H103.541Z" fill="#F9F9F9"/>
<path d="M113.61 35.4262V13.874H118V32.4547H123.056V35.4355L113.61 35.4262Z" fill="#FFC239"/>
<path d="M130.85 35.7203C129.271 35.7203 128.021 35.4364 127.097 34.8689C126.179 34.3054 125.48 33.4463 125.116 32.4329C124.716 31.379 124.517 30.1152 124.517 28.6415V20.606C124.517 19.1285 124.716 17.869 125.116 16.8275C125.478 15.8219 126.179 14.9733 127.097 14.4266C128.021 13.8873 129.271 13.6177 130.85 13.6177C132.428 13.6177 133.691 13.8972 134.641 14.4561C135.563 15.003 136.267 15.851 136.635 16.857C137.035 17.8949 137.235 19.1501 137.236 20.6226V28.658C137.236 30.1354 137.036 31.3993 136.635 32.4495C136.269 33.4658 135.565 34.3256 134.641 34.8854C133.709 35.442 132.445 35.7203 130.85 35.7203ZM130.85 32.553C131.416 32.553 131.834 32.4255 132.1 32.167C132.38 31.884 132.566 31.5216 132.632 31.129C132.723 30.6693 132.767 30.2016 132.765 29.7328V19.5422C132.768 19.0778 132.723 18.6143 132.632 18.159C132.564 17.7683 132.38 17.4078 132.1 17.1266C131.834 16.8803 131.417 16.7572 130.85 16.7572C130.317 16.7572 129.926 16.8865 129.651 17.1432C129.373 17.4224 129.188 17.7802 129.119 18.1682C129.028 18.6235 128.983 19.087 128.986 19.5515V29.7421C128.984 30.2102 129.024 30.6775 129.106 31.1383C129.164 31.5308 129.346 31.8944 129.625 32.1762C129.891 32.4255 130.3 32.553 130.85 32.553Z" fill="#FFC239"/>
<path d="M145.646 35.7203C144.067 35.7203 142.817 35.4364 141.894 34.8689C140.975 34.3054 140.276 33.4463 139.911 32.4329C139.518 31.379 139.321 30.1152 139.321 28.6415V20.606C139.321 19.1285 139.52 17.869 139.919 16.8275C140.282 15.8219 140.982 14.9733 141.901 14.4266C142.818 13.8873 144.066 13.6177 145.646 13.6177C147.226 13.6177 148.489 13.8972 149.437 14.4561C150.359 15.003 151.063 15.851 151.432 16.857C151.831 17.8949 152.03 19.1501 152.03 20.6226V28.658C152.03 30.1354 151.831 31.3993 151.432 32.4495C151.065 33.4658 150.361 34.3256 149.437 34.8854C148.506 35.442 147.241 35.7203 145.646 35.7203ZM145.646 32.553C146.212 32.553 146.631 32.4255 146.896 32.167C147.176 31.884 147.362 31.5216 147.428 31.129C147.52 30.6693 147.563 30.2016 147.561 29.7328V19.5422C147.565 19.0778 147.52 18.6143 147.428 18.159C147.361 17.7679 147.173 17.4073 146.893 17.1266C146.63 16.8803 146.214 16.7572 145.646 16.7572C145.111 16.7572 144.712 16.8859 144.448 17.1432C144.169 17.4224 143.984 17.7802 143.916 18.1682C143.824 18.6235 143.779 19.087 143.783 19.5515V29.7421C143.78 30.2102 143.821 30.6775 143.903 31.1383C143.961 31.5308 144.142 31.8944 144.422 32.1762C144.687 32.4255 145.096 32.553 145.646 32.553Z" fill="#FFC239"/>
<path d="M156.804 35.4262V17.1428H153.479V13.874H164.495V17.1466H161.222V35.4299L156.804 35.4262Z" fill="#FFC239"/>
</g>
<g clip-path="url(#clip1_4_3)">
<path d="M27.873 5.37889C27.8997 5.37889 27.8997 5.37889 27.9263 5.37889C27.873 5.35228 27.8198 5.32568 27.7932 5.29907C27.8198 5.32568 27.8464 5.35228 27.873 5.37889Z" fill="#662D91"/>
<path d="M7.68031 1.894C5.63178 2.69213 3.79608 4.20858 2.99795 6.28372C2.43926 7.74695 2.54567 9.29001 2.7319 10.8064C3.15757 14.5045 4.03552 17.4575 3.10437 20.8363C3.13097 20.8363 3.18418 20.8363 3.23739 20.8363C3.26399 20.8097 3.3438 20.7831 3.39701 20.7831C3.84929 20.6501 4.48779 20.7033 4.83365 20.9161C5.04648 20.9161 5.28592 20.9161 5.49875 20.9161C5.55196 20.9161 5.63178 20.9161 5.68499 20.9427C6.13726 20.0648 6.56293 19.1868 6.93539 18.2823C6.93539 18.1492 6.90878 18.0428 6.90878 17.9098C6.88218 17.6438 6.90878 17.3777 6.96199 17.1117C6.4033 16.1273 6.05745 14.5577 6.61614 13.5467C6.61614 13.0146 6.77576 12.4293 7.06841 12.0835C7.28125 11.8174 7.6271 11.5514 7.99956 11.3385C8.31881 10.0881 9.59582 9.29001 10.8728 9.21019C11.2985 8.6249 12.0168 8.14602 12.5755 7.80016C13.1342 7.45431 13.5865 7.29468 14.0654 7.34789C14.8635 6.68278 16.1671 5.91126 17.1249 5.99107C17.5505 5.5388 18.2422 5.21954 18.8275 5.13973C19.1202 5.11313 19.3596 5.16633 19.5725 5.27275C20.211 4.84708 20.9825 4.63425 21.7274 4.52783C22.1797 4.47462 22.4723 4.55444 22.765 4.74067C23.3769 4.42141 24.1218 4.18197 24.7869 4.3682C24.9997 4.42141 25.2126 4.52783 25.3988 4.68746C25.6649 4.60764 25.9309 4.58104 26.1969 4.60764C26.4098 4.60764 26.596 4.63425 26.7822 4.68746C21.1155 1.84079 13.6663 -0.420572 7.68031 1.894Z" fill="#F11008"/>
<path d="M31.3849 9.84845C31.3849 9.82185 31.3849 9.79524 31.3849 9.79524C31.3051 9.20995 31.1454 8.65126 30.7464 8.25219C30.7198 7.64029 30.4271 7.055 29.9749 6.70914C29.9216 6.52291 29.8418 6.33668 29.7088 6.17705C29.2565 5.61836 28.5914 5.43213 27.9263 5.40553C27.8997 5.40553 27.8997 5.40553 27.8731 5.40553C27.8465 5.37892 27.8199 5.35232 27.7933 5.32571C27.6071 5.16609 27.3676 5.03307 27.1548 4.92665C27.0484 4.87344 26.942 4.84684 26.8089 4.79363C26.8089 4.79363 26.7823 4.79363 26.7557 4.79363C26.5695 4.74042 26.3833 4.71382 26.1704 4.71382C25.9044 4.71382 25.6383 4.71382 25.3723 4.79363C25.1595 4.634 24.9466 4.52758 24.7604 4.47438C24.0953 4.28815 23.3504 4.52758 22.7385 4.84684C22.4458 4.634 22.1266 4.55419 21.7009 4.634C20.956 4.74042 20.1579 4.95325 19.546 5.37892C19.3331 5.27251 19.0937 5.19269 18.801 5.2459C18.2423 5.29911 17.524 5.64497 17.0984 6.09724C16.1672 6.01743 14.837 6.78895 14.0389 7.45406C13.5866 7.40085 13.1343 7.53387 12.549 7.90634C11.9903 8.25219 11.2454 8.73107 10.8463 9.31636C9.56933 9.39618 8.29232 10.2209 7.97307 11.4447C7.57401 11.6575 7.25475 11.9236 7.04192 12.1896C6.77588 12.5355 6.58964 13.1208 6.58964 13.6529C6.03095 14.6638 6.37681 16.2069 6.9355 17.2179C6.88229 17.4839 6.85569 17.7499 6.88229 18.016C6.88229 18.149 6.9089 18.2554 6.9089 18.3884C6.98871 18.8407 7.17494 19.2398 7.46759 19.6388C7.46759 20.0113 7.574 20.3838 7.76024 20.7296C8.05288 21.1819 8.61157 21.6608 9.17026 21.581C9.25008 21.6608 9.35649 21.7406 9.48952 21.7938C9.94179 22.0332 10.4207 22.2195 10.9262 22.2461C11.6179 22.7782 12.6288 22.9378 13.3205 22.4323C13.3737 22.4057 13.3737 22.2993 13.3205 22.2727C12.8417 22.0332 12.283 21.7938 11.9105 21.3681C11.4848 20.8626 11.3518 20.2241 11.3252 19.559C11.6179 19.2664 11.7509 18.8141 11.8041 18.3618C12.0169 18.3086 12.283 18.149 12.4692 18.0692C12.9215 17.8298 13.3471 17.4839 13.6664 17.0582C14.0655 16.9784 14.4645 16.8188 14.7306 16.7124C15.1828 16.4995 15.7947 16.1803 16.0874 15.728C16.2736 15.6748 16.4066 15.6482 16.5131 15.6216C17.125 15.4886 17.7635 15.2757 18.2689 14.8767C19.1735 14.8501 20.078 14.6638 20.6899 14.0519C21.0624 14.0253 21.4083 13.9455 21.6743 13.9189C22.233 13.8391 22.7385 13.6529 23.1907 13.3336C23.5366 13.3602 23.9091 13.3336 24.3081 13.2538C24.7604 13.174 25.3723 13.0942 25.798 12.8015C26.4631 12.8547 27.208 12.7483 27.8465 12.5089C28.352 12.7217 28.9639 12.7483 29.496 12.8015C29.4694 12.8547 29.4694 12.9079 29.496 12.9878C29.496 13.2272 29.629 13.44 29.7088 13.6795C29.8418 14.0253 29.9216 14.3446 29.9749 14.6904C29.895 15.2225 29.7886 15.728 29.629 16.2601C29.629 16.2867 29.6556 16.3665 29.6822 16.3665C30.0281 16.4463 30.2675 16.1005 30.5069 15.8876C31.0656 15.4088 31.6509 14.9299 32.0766 14.318C32.5289 13.6263 32.6619 12.7483 32.2628 12.03C32.2628 11.1787 31.8904 10.3273 31.3849 9.84845Z" fill="#EDEDED"/>
<path d="M0.603656 25.5984C0.763282 26.1038 1.18895 26.6891 1.72104 26.9286C1.80085 27.0616 1.93387 27.1946 2.06689 27.3276C2.62559 27.7267 3.37051 27.9927 4.03561 27.8597C4.86035 27.9395 5.92452 27.5671 6.58963 27.0084C8.02626 26.5827 8.18589 23.5764 7.17493 22.2462C7.12172 22.0068 6.9887 21.7407 6.80246 21.5279C6.48321 21.1554 6.08415 20.9958 5.68508 20.9426C5.63187 20.9426 5.55206 20.916 5.49885 20.916C5.28602 20.916 5.04658 20.916 4.83374 20.916C4.46128 20.7032 3.84938 20.6499 3.39711 20.783C3.3439 20.783 3.29069 20.8096 3.23748 20.8362C3.21088 20.8362 3.15767 20.8096 3.10446 20.8362C2.22652 20.783 1.18895 21.5545 1.05593 22.4324C0.8697 22.5921 0.736678 22.7783 0.630261 23.0443C0.497239 23.4168 0.44403 24.0287 0.577052 24.5342C0.497239 24.88 0.497239 25.2525 0.603656 25.5984Z" fill="#EDEDED"/>
</g>
<defs>
<linearGradient id="paint0_linear_4_3" x1="33.9901" y1="8.4558" x2="20.6358" y2="61.134" gradientUnits="userSpaceOnUse">
<stop stop-color="#FF922E"/>
<stop offset="1" stop-color="#FFC239"/>
</linearGradient>
<linearGradient id="paint1_linear_4_3" x1="27.4163" y1="6.788" x2="14.0603" y2="59.4662" gradientUnits="userSpaceOnUse">
<stop stop-color="#FF922E"/>
<stop offset="1" stop-color="#FFC239"/>
</linearGradient>
<linearGradient id="paint2_linear_4_3" x1="28.5076" y1="11.4233" x2="10.1707" y2="51.7538" gradientUnits="userSpaceOnUse">
<stop stop-color="#F9F9F9"/>
<stop offset="1" stop-color="#B5B5B5"/>
</linearGradient>
<linearGradient id="paint3_linear_4_3" x1="-0.206564" y1="33.0825" x2="43.3374" y2="-9.73194" gradientUnits="userSpaceOnUse">
<stop stop-color="#F9F9F9"/>
<stop offset="1" stop-color="#B5B5B5"/>
</linearGradient>
<linearGradient id="paint4_linear_4_3" x1="-0.389328" y1="32.8961" x2="43.1546" y2="-9.91649" gradientUnits="userSpaceOnUse">
<stop stop-color="#F9F9F9"/>
<stop offset="1" stop-color="#B5B5B5"/>
</linearGradient>
<linearGradient id="paint5_linear_4_3" x1="-0.312301" y1="32.9739" x2="43.2316" y2="-9.83871" gradientUnits="userSpaceOnUse">
<stop stop-color="#F9F9F9"/>
<stop offset="1" stop-color="#B5B5B5"/>
</linearGradient>
<linearGradient id="paint6_linear_4_3" x1="6.28696" y1="39.6871" x2="49.8309" y2="-3.12737" gradientUnits="userSpaceOnUse">
<stop stop-color="#F9F9F9"/>
<stop offset="1" stop-color="#B5B5B5"/>
</linearGradient>
<linearGradient id="paint7_linear_4_3" x1="6.41239" y1="39.8144" x2="49.9564" y2="-3.00001" gradientUnits="userSpaceOnUse">
<stop stop-color="#F9F9F9"/>
<stop offset="1" stop-color="#B5B5B5"/>
</linearGradient>
<linearGradient id="paint8_linear_4_3" x1="2.69998" y1="36.0394" x2="46.2439" y2="-6.77504" gradientUnits="userSpaceOnUse">
<stop stop-color="#F9F9F9"/>
<stop offset="1" stop-color="#B5B5B5"/>
</linearGradient>
<clipPath id="clip0_4_3">
<rect width="159.993" height="39.1094" fill="white" transform="translate(4.50366 4.9375)"/>
</clipPath>
<clipPath id="clip1_4_3">
<rect width="32" height="27" fill="white" transform="translate(0.5 0.9375)"/>
</clipPath>
</defs>
</svg>
